<svg width="275" height="153" viewBox="0 0 275 153" fill="none" xmlns="http://www.w3.org/2000/svg">
<mask id="path-1-outside-1_697_1011" maskUnits="userSpaceOnUse" x="54" y="109" width="168" height="42" fill="black">
<rect fill="white" x="54" y="109" width="168" height="42"/>
<path d="M74.8934 119.8C74.3868 118.867 73.6534 118.16 72.6934 117.68C71.7601 117.173 70.6534 116.92 69.3734 116.92C67.1601 116.92 65.3868 117.653 64.0534 119.12C62.7201 120.56 62.0534 122.493 62.0534 124.92C62.0534 127.507 62.7468 129.533 64.1334 131C65.5468 132.44 67.4801 133.16 69.9334 133.16C71.6134 133.16 73.0268 132.733 74.1734 131.88C75.3468 131.027 76.2001 129.8 76.7334 128.2H68.0534V123.16H82.9334V129.52C82.4268 131.227 81.5601 132.813 80.3334 134.28C79.1334 135.747 77.6001 136.933 75.7334 137.84C73.8668 138.747 71.7601 139.2 69.4134 139.2C66.6401 139.2 64.1601 138.6 61.9734 137.4C59.8134 136.173 58.1201 134.48 56.8934 132.32C55.6934 130.16 55.0934 127.693 55.0934 124.92C55.0934 122.147 55.6934 119.68 56.8934 117.52C58.1201 115.333 59.8134 113.64 61.9734 112.44C64.1334 111.213 66.6001 110.6 69.3734 110.6C72.7334 110.6 75.5601 111.413 77.8534 113.04C80.1734 114.667 81.7068 116.92 82.4534 119.8H74.8934ZM111.522 116.68L97.5222 149.6H90.1622L95.2822 138.24L86.2022 116.68H93.8422L99.0022 130.64L104.122 116.68H111.522ZM144.476 116.44C147.249 116.44 149.449 117.28 151.076 118.96C152.729 120.64 153.556 122.973 153.556 125.96V139H146.756V126.88C146.756 125.44 146.369 124.333 145.596 123.56C144.849 122.76 143.809 122.36 142.476 122.36C141.142 122.36 140.089 122.76 139.316 123.56C138.569 124.333 138.196 125.44 138.196 126.88V139H131.396V126.88C131.396 125.44 131.009 124.333 130.236 123.56C129.489 122.76 128.449 122.36 127.116 122.36C125.782 122.36 124.729 122.76 123.956 123.56C123.209 124.333 122.836 125.44 122.836 126.88V139H115.996V116.68H122.836V119.48C123.529 118.547 124.436 117.813 125.556 117.28C126.676 116.72 127.942 116.44 129.356 116.44C131.036 116.44 132.529 116.8 133.836 117.52C135.169 118.24 136.209 119.267 136.956 120.6C137.729 119.373 138.782 118.373 140.116 117.6C141.449 116.827 142.902 116.44 144.476 116.44ZM192.139 110.92V139H185.299V122.16L179.019 139H173.499L167.179 122.12V139H160.339V110.92H168.419L176.299 130.36L184.099 110.92H192.139ZM220.098 127.48C220.098 128.12 220.058 128.787 219.978 129.48H204.498C204.605 130.867 205.045 131.933 205.818 132.68C206.618 133.4 207.591 133.76 208.738 133.76C210.445 133.76 211.631 133.04 212.298 131.6H219.578C219.205 133.067 218.525 134.387 217.538 135.56C216.578 136.733 215.365 137.653 213.898 138.32C212.431 138.987 210.791 139.32 208.978 139.32C206.791 139.32 204.845 138.853 203.138 137.92C201.431 136.987 200.098 135.653 199.138 133.92C198.178 132.187 197.698 130.16 197.698 127.84C197.698 125.52 198.165 123.493 199.098 121.76C200.058 120.027 201.391 118.693 203.098 117.76C204.805 116.827 206.765 116.36 208.978 116.36C211.138 116.36 213.058 116.813 214.738 117.72C216.418 118.627 217.725 119.92 218.658 121.6C219.618 123.28 220.098 125.24 220.098 127.48ZM213.098 125.68C213.098 124.507 212.698 123.573 211.898 122.88C211.098 122.187 210.098 121.84 208.898 121.84C207.751 121.84 206.778 122.173 205.978 122.84C205.205 123.507 204.725 124.453 204.538 125.68H213.098Z"/>
</mask>
<path d="M74.8934 119.8C74.3868 118.867 73.6534 118.16 72.6934 117.68C71.7601 117.173 70.6534 116.92 69.3734 116.92C67.1601 116.92 65.3868 117.653 64.0534 119.12C62.7201 120.56 62.0534 122.493 62.0534 124.92C62.0534 127.507 62.7468 129.533 64.1334 131C65.5468 132.44 67.4801 133.16 69.9334 133.16C71.6134 133.16 73.0268 132.733 74.1734 131.88C75.3468 131.027 76.2001 129.8 76.7334 128.2H68.0534V123.16H82.9334V129.52C82.4268 131.227 81.5601 132.813 80.3334 134.28C79.1334 135.747 77.6001 136.933 75.7334 137.84C73.8668 138.747 71.7601 139.2 69.4134 139.2C66.6401 139.2 64.1601 138.6 61.9734 137.4C59.8134 136.173 58.1201 134.48 56.8934 132.32C55.6934 130.16 55.0934 127.693 55.0934 124.92C55.0934 122.147 55.6934 119.68 56.8934 117.52C58.1201 115.333 59.8134 113.64 61.9734 112.44C64.1334 111.213 66.6001 110.6 69.3734 110.6C72.7334 110.6 75.5601 111.413 77.8534 113.04C80.1734 114.667 81.7068 116.92 82.4534 119.8H74.8934ZM111.522 116.68L97.5222 149.6H90.1622L95.2822 138.24L86.2022 116.68H93.8422L99.0022 130.64L104.122 116.68H111.522ZM144.476 116.44C147.249 116.44 149.449 117.28 151.076 118.96C152.729 120.64 153.556 122.973 153.556 125.96V139H146.756V126.88C146.756 125.44 146.369 124.333 145.596 123.56C144.849 122.76 143.809 122.36 142.476 122.36C141.142 122.36 140.089 122.76 139.316 123.56C138.569 124.333 138.196 125.44 138.196 126.88V139H131.396V126.88C131.396 125.44 131.009 124.333 130.236 123.56C129.489 122.76 128.449 122.36 127.116 122.36C125.782 122.36 124.729 122.76 123.956 123.56C123.209 124.333 122.836 125.44 122.836 126.88V139H115.996V116.68H122.836V119.48C123.529 118.547 124.436 117.813 125.556 117.28C126.676 116.72 127.942 116.44 129.356 116.44C131.036 116.44 132.529 116.8 133.836 117.52C135.169 118.24 136.209 119.267 136.956 120.6C137.729 119.373 138.782 118.373 140.116 117.6C141.449 116.827 142.902 116.44 144.476 116.44ZM192.139 110.92V139H185.299V122.16L179.019 139H173.499L167.179 122.12V139H160.339V110.92H168.419L176.299 130.36L184.099 110.92H192.139ZM220.098 127.48C220.098 128.12 220.058 128.787 219.978 129.48H204.498C204.605 130.867 205.045 131.933 205.818 132.68C206.618 133.4 207.591 133.76 208.738 133.76C210.445 133.76 211.631 133.04 212.298 131.6H219.578C219.205 133.067 218.525 134.387 217.538 135.56C216.578 136.733 215.365 137.653 213.898 138.32C212.431 138.987 210.791 139.32 208.978 139.32C206.791 139.32 204.845 138.853 203.138 137.92C201.431 136.987 200.098 135.653 199.138 133.92C198.178 132.187 197.698 130.16 197.698 127.84C197.698 125.52 198.165 123.493 199.098 121.76C200.058 120.027 201.391 118.693 203.098 117.76C204.805 116.827 206.765 116.36 208.978 116.36C211.138 116.36 213.058 116.813 214.738 117.72C216.418 118.627 217.725 119.92 218.658 121.6C219.618 123.28 220.098 125.24 220.098 127.48ZM213.098 125.68C213.098 124.507 212.698 123.573 211.898 122.88C211.098 122.187 210.098 121.84 208.898 121.84C207.751 121.84 206.778 122.173 205.978 122.84C205.205 123.507 204.725 124.453 204.538 125.68H213.098Z" fill="#F19B10"/>
<path d="M74.8934 119.8L74.0146 120.277L74.2984 120.8H74.8934V119.8ZM72.6934 117.68L72.2163 118.559L72.2312 118.567L72.2462 118.574L72.6934 117.68ZM64.0534 119.12L64.7872 119.799L64.7934 119.793L64.0534 119.12ZM64.1334 131L63.4068 131.687L63.4132 131.694L63.4198 131.7L64.1334 131ZM74.1734 131.88L73.5852 131.071L73.5764 131.078L74.1734 131.88ZM76.7334 128.2L77.6821 128.516L78.1209 127.2H76.7334V128.2ZM68.0534 128.2H67.0534V129.2H68.0534V128.2ZM68.0534 123.16V122.16H67.0534V123.16H68.0534ZM82.9334 123.16H83.9334V122.16H82.9334V123.16ZM82.9334 129.52L83.8921 129.805L83.9334 129.665V129.52H82.9334ZM80.3334 134.28L79.5663 133.638L79.5595 133.647L80.3334 134.28ZM75.7334 137.84L75.2965 136.94L75.2965 136.94L75.7334 137.84ZM61.9734 137.4L61.4796 138.27L61.486 138.273L61.4923 138.277L61.9734 137.4ZM56.8934 132.32L56.0192 132.806L56.0239 132.814L56.8934 132.32ZM56.8934 117.52L56.0213 117.031L56.0193 117.034L56.8934 117.52ZM61.9734 112.44L62.4591 113.314L62.4673 113.31L61.9734 112.44ZM77.8534 113.04L77.2749 113.856L77.2793 113.859L77.8534 113.04ZM82.4534 119.8V120.8H83.7458L83.4214 119.549L82.4534 119.8ZM75.7723 119.323C75.1668 118.207 74.2818 117.356 73.1407 116.786L72.2462 118.574C73.0251 118.964 73.6068 119.526 74.0146 120.277L75.7723 119.323ZM73.1705 116.801C72.0635 116.2 70.7861 115.92 69.3734 115.92V117.92C70.5208 117.92 71.4567 118.146 72.2163 118.559L73.1705 116.801ZM69.3734 115.92C66.9149 115.92 64.8596 116.747 63.3135 118.447L64.7934 119.793C65.9139 118.56 67.4053 117.92 69.3734 117.92V115.92ZM63.3197 118.441C61.777 120.107 61.0534 122.304 61.0534 124.92H63.0534C63.0534 122.683 63.6632 121.013 64.7872 119.799L63.3197 118.441ZM61.0534 124.92C61.0534 127.687 61.7992 129.987 63.4068 131.687L64.8601 130.313C63.6943 129.08 63.0534 127.326 63.0534 124.92H61.0534ZM63.4198 131.7C65.0605 133.372 67.2736 134.16 69.9334 134.16V132.16C67.6866 132.16 66.033 131.508 64.8471 130.3L63.4198 131.7ZM69.9334 134.16C71.7895 134.16 73.4224 133.685 74.7704 132.682L73.5764 131.078C72.6312 131.781 71.4374 132.16 69.9334 132.16V134.16ZM74.7616 132.689C76.1297 131.694 77.0939 130.281 77.6821 128.516L75.7848 127.884C75.3063 129.319 74.5638 130.36 73.5853 131.071L74.7616 132.689ZM76.7334 127.2H68.0534V129.2H76.7334V127.2ZM69.0534 128.2V123.16H67.0534V128.2H69.0534ZM68.0534 124.16H82.9334V122.16H68.0534V124.16ZM81.9334 123.16V129.52H83.9334V123.16H81.9334ZM81.9748 129.235C81.5098 130.802 80.712 132.269 79.5664 133.638L81.1005 134.922C82.4082 133.358 83.3438 131.652 83.8921 129.805L81.9748 129.235ZM79.5595 133.647C78.4597 134.991 77.0454 136.091 75.2965 136.94L76.1703 138.74C78.1548 137.776 79.8072 136.502 81.1074 134.913L79.5595 133.647ZM75.2965 136.94C73.5829 137.773 71.6287 138.2 69.4134 138.2V140.2C71.8916 140.2 74.1507 139.72 76.1703 138.74L75.2965 136.94ZM69.4134 138.2C66.7891 138.2 64.4778 137.634 62.4545 136.523L61.4923 138.277C63.8424 139.566 66.4911 140.2 69.4134 140.2V138.2ZM62.4673 136.53C60.4641 135.393 58.9006 133.829 57.763 131.826L56.0239 132.814C57.3396 135.131 59.1628 136.954 61.4796 138.27L62.4673 136.53ZM57.7676 131.834C56.6598 129.84 56.0934 127.545 56.0934 124.92H54.0934C54.0934 127.842 54.727 130.48 56.0193 132.806L57.7676 131.834ZM56.0934 124.92C56.0934 122.295 56.6598 120 57.7676 118.006L56.0193 117.034C54.727 119.36 54.0934 121.998 54.0934 124.92H56.0934ZM57.7656 118.009C58.903 115.982 60.4636 114.423 62.4591 113.314L61.4878 111.566C59.1633 112.857 57.3372 114.685 56.0213 117.031L57.7656 118.009ZM62.4673 113.31C64.4598 112.178 66.7526 111.6 69.3734 111.6V109.6C66.4476 109.6 63.8071 110.249 61.4796 111.57L62.4673 113.31ZM69.3734 111.6C72.5675 111.6 75.1815 112.371 77.2749 113.856L78.432 112.224C75.9387 110.456 72.8994 109.6 69.3734 109.6V111.6ZM77.2793 113.859C79.3944 115.342 80.7952 117.389 81.4854 120.051L83.4214 119.549C82.6184 116.451 80.9525 113.992 78.4275 112.221L77.2793 113.859ZM82.4534 118.8H74.8934V120.8H82.4534V118.8ZM111.522 116.68L112.442 117.071L113.034 115.68H111.522V116.68ZM97.5222 149.6V150.6H98.1836L98.4424 149.991L97.5222 149.6ZM90.1622 149.6L89.2505 149.189L88.6146 150.6H90.1622V149.6ZM95.2822 138.24L96.1939 138.651L96.373 138.254L96.2038 137.852L95.2822 138.24ZM86.2022 116.68V115.68H84.696L85.2806 117.068L86.2022 116.68ZM93.8422 116.68L94.7802 116.333L94.5387 115.68H93.8422V116.68ZM99.0022 130.64L98.0642 130.987L99.0058 133.534L99.941 130.984L99.0022 130.64ZM104.122 116.68V115.68H103.424L103.183 116.336L104.122 116.68ZM110.602 116.289L96.6019 149.209L98.4424 149.991L112.442 117.071L110.602 116.289ZM97.5222 148.6H90.1622V150.6H97.5222V148.6ZM91.0739 150.011L96.1939 138.651L94.3705 137.829L89.2505 149.189L91.0739 150.011ZM96.2038 137.852L87.1238 116.292L85.2806 117.068L94.3606 138.628L96.2038 137.852ZM86.2022 117.68H93.8422V115.68H86.2022V117.68ZM92.9042 117.027L98.0642 130.987L99.9402 130.293L94.7802 116.333L92.9042 117.027ZM99.941 130.984L105.061 117.024L103.183 116.336L98.0633 130.296L99.941 130.984ZM104.122 117.68H111.522V115.68H104.122V117.68ZM151.076 118.96L150.357 119.656L150.363 119.661L151.076 118.96ZM153.556 139V140H154.556V139H153.556ZM146.756 139H145.756V140H146.756V139ZM145.596 123.56L144.865 124.242L144.876 124.255L144.889 124.267L145.596 123.56ZM139.316 123.56L138.597 122.865L138.596 122.865L139.316 123.56ZM138.196 139V140H139.196V139H138.196ZM131.396 139H130.396V140H131.396V139ZM130.236 123.56L129.505 124.242L129.516 124.255L129.529 124.267L130.236 123.56ZM123.956 123.56L123.237 122.865L123.236 122.865L123.956 123.56ZM122.836 139V140H123.836V139H122.836ZM115.996 139H114.996V140H115.996V139ZM115.996 116.68V115.68H114.996V116.68H115.996ZM122.836 116.68H123.836V115.68H122.836V116.68ZM122.836 119.48H121.836V122.503L123.638 120.076L122.836 119.48ZM125.556 117.28L125.986 118.183L125.994 118.179L126.003 118.174L125.556 117.28ZM133.836 117.52L133.353 118.396L133.36 118.4L133.836 117.52ZM136.956 120.6L136.083 121.089L136.905 122.556L137.802 121.133L136.956 120.6ZM144.476 117.44C147.033 117.44 148.954 118.206 150.357 119.656L151.794 118.264C149.944 116.354 147.465 115.44 144.476 115.44V117.44ZM150.363 119.661C151.786 121.108 152.556 123.162 152.556 125.96H154.556C154.556 122.784 153.672 120.172 151.788 118.259L150.363 119.661ZM152.556 125.96V139H154.556V125.96H152.556ZM153.556 138H146.756V140H153.556V138ZM147.756 139V126.88H145.756V139H147.756ZM147.756 126.88C147.756 125.262 147.317 123.868 146.303 122.853L144.889 124.267C145.421 124.799 145.756 125.618 145.756 126.88H147.756ZM146.327 122.878C145.351 121.832 144.021 121.36 142.476 121.36V123.36C143.597 123.36 144.347 123.688 144.865 124.242L146.327 122.878ZM142.476 121.36C140.929 121.36 139.595 121.832 138.597 122.865L140.035 124.255C140.583 123.688 141.356 123.36 142.476 123.36V121.36ZM138.596 122.865C137.615 123.881 137.196 125.271 137.196 126.88H139.196C139.196 125.609 139.523 124.785 140.035 124.255L138.596 122.865ZM137.196 126.88V139H139.196V126.88H137.196ZM138.196 138H131.396V140H138.196V138ZM132.396 139V126.88H130.396V139H132.396ZM132.396 126.88C132.396 125.262 131.957 123.868 130.943 122.853L129.529 124.267C130.061 124.799 130.396 125.618 130.396 126.88H132.396ZM130.967 122.878C129.991 121.832 128.661 121.36 127.116 121.36V123.36C128.237 123.36 128.987 123.688 129.505 124.242L130.967 122.878ZM127.116 121.36C125.569 121.36 124.235 121.832 123.237 122.865L124.675 124.255C125.223 123.688 125.996 123.36 127.116 123.36V121.36ZM123.236 122.865C122.255 123.881 121.836 125.271 121.836 126.88H123.836C123.836 125.609 124.163 124.785 124.675 124.255L123.236 122.865ZM121.836 126.88V139H123.836V126.88H121.836ZM122.836 138H115.996V140H122.836V138ZM116.996 139V116.68H114.996V139H116.996ZM115.996 117.68H122.836V115.68H115.996V117.68ZM121.836 116.68V119.48H123.836V116.68H121.836ZM123.638 120.076C124.228 119.283 125.003 118.651 125.986 118.183L125.126 116.377C123.868 116.976 122.83 117.811 122.033 118.884L123.638 120.076ZM126.003 118.174C126.967 117.692 128.077 117.44 129.356 117.44V115.44C127.807 115.44 126.384 115.748 125.108 116.386L126.003 118.174ZM129.356 117.44C130.888 117.44 132.212 117.767 133.353 118.396L134.318 116.644C132.846 115.833 131.183 115.44 129.356 115.44V117.44ZM133.36 118.4C134.525 119.029 135.428 119.919 136.083 121.089L137.828 120.111C136.99 118.614 135.812 117.451 134.311 116.64L133.36 118.4ZM137.802 121.133C138.483 120.052 139.415 119.162 140.617 118.465L139.614 116.735C138.15 117.584 136.975 118.695 136.11 120.067L137.802 121.133ZM140.617 118.465C141.795 117.782 143.075 117.44 144.476 117.44V115.44C142.73 115.44 141.103 115.871 139.614 116.735L140.617 118.465ZM192.139 110.92H193.139V109.92H192.139V110.92ZM192.139 139V140H193.139V139H192.139ZM185.299 139H184.299V140H185.299V139ZM185.299 122.16H186.299L184.362 121.811L185.299 122.16ZM179.019 139V140H179.714L179.956 139.349L179.019 139ZM173.499 139L172.563 139.351L172.806 140H173.499V139ZM167.179 122.12L168.116 121.769L166.179 122.12H167.179ZM167.179 139V140H168.179V139H167.179ZM160.339 139H159.339V140H160.339V139ZM160.339 110.92V109.92H159.339V110.92H160.339ZM168.419 110.92L169.346 110.544L169.093 109.92H168.419V110.92ZM176.299 130.36L175.373 130.736L176.304 133.034L177.227 130.732L176.299 130.36ZM184.099 110.92V109.92H183.423L183.171 110.548L184.099 110.92ZM191.139 110.92V139H193.139V110.92H191.139ZM192.139 138H185.299V140H192.139V138ZM186.299 139V122.16H184.299V139H186.299ZM184.362 121.811L178.082 138.651L179.956 139.349L186.236 122.509L184.362 121.811ZM179.019 138H173.499V140H179.019V138ZM174.436 138.649L168.116 121.769L166.243 122.471L172.563 139.351L174.436 138.649ZM166.179 122.12V139H168.179V122.12H166.179ZM167.179 138H160.339V140H167.179V138ZM161.339 139V110.92H159.339V139H161.339ZM160.339 111.92H168.419V109.92H160.339V111.92ZM167.493 111.296L175.373 130.736L177.226 129.984L169.346 110.544L167.493 111.296ZM177.227 130.732L185.027 111.292L183.171 110.548L175.371 129.988L177.227 130.732ZM184.099 111.92H192.139V109.92H184.099V111.92ZM219.978 129.48V130.48H220.869L220.972 129.595L219.978 129.48ZM204.498 129.48V128.48H203.418L203.501 129.557L204.498 129.48ZM205.818 132.68L205.124 133.399L205.136 133.412L205.149 133.423L205.818 132.68ZM212.298 131.6V130.6H211.659L211.391 131.18L212.298 131.6ZM219.578 131.6L220.547 131.847L220.865 130.6H219.578V131.6ZM217.538 135.56L216.773 134.916L216.764 134.927L217.538 135.56ZM213.898 138.32L214.312 139.23L213.898 138.32ZM203.138 137.92L202.658 138.797L202.658 138.797L203.138 137.92ZM199.138 133.92L200.013 133.436L200.013 133.435L199.138 133.92ZM199.098 121.76L198.223 121.275L198.218 121.286L199.098 121.76ZM203.098 117.76L203.578 118.637L203.578 118.637L203.098 117.76ZM214.738 117.72L214.263 118.6L214.263 118.6L214.738 117.72ZM218.658 121.6L217.784 122.086L217.79 122.096L218.658 121.6ZM213.098 125.68V126.68H214.098V125.68H213.098ZM211.898 122.88L212.553 122.124L212.553 122.124L211.898 122.88ZM205.978 122.84L205.338 122.072L205.332 122.077L205.325 122.083L205.978 122.84ZM204.538 125.68L203.55 125.53L203.374 126.68H204.538V125.68ZM219.098 127.48C219.098 128.078 219.061 128.707 218.985 129.365L220.972 129.595C221.056 128.867 221.098 128.162 221.098 127.48H219.098ZM219.978 128.48H204.498V130.48H219.978V128.48ZM203.501 129.557C203.621 131.114 204.127 132.438 205.124 133.399L206.513 131.961C205.962 131.429 205.589 130.619 205.495 129.403L203.501 129.557ZM205.149 133.423C206.145 134.32 207.362 134.76 208.738 134.76V132.76C207.821 132.76 207.091 132.48 206.487 131.937L205.149 133.423ZM208.738 134.76C209.732 134.76 210.645 134.549 211.427 134.075C212.214 133.598 212.801 132.894 213.206 132.02L211.391 131.18C211.128 131.746 210.789 132.122 210.389 132.365C209.985 132.611 209.45 132.76 208.738 132.76V134.76ZM212.298 132.6H219.578V130.6H212.298V132.6ZM218.609 131.353C218.273 132.672 217.664 133.857 216.773 134.916L218.303 136.204C219.386 134.917 220.136 133.461 220.547 131.847L218.609 131.353ZM216.764 134.927C215.907 135.974 214.82 136.802 213.484 137.41L214.312 139.23C215.909 138.504 217.249 137.493 218.312 136.193L216.764 134.927ZM213.484 137.41C212.163 138.01 210.667 138.32 208.978 138.32V140.32C210.916 140.32 212.7 139.963 214.312 139.23L213.484 137.41ZM208.978 138.32C206.938 138.32 205.16 137.886 203.618 137.043L202.658 138.797C204.53 139.821 206.645 140.32 208.978 140.32V138.32ZM203.618 137.043C202.081 136.202 200.883 135.006 200.013 133.436L198.263 134.404C199.313 136.3 200.782 137.771 202.658 138.797L203.618 137.043ZM200.013 133.435C199.148 131.874 198.698 130.02 198.698 127.84H196.698C196.698 130.3 197.208 132.499 198.263 134.404L200.013 133.435ZM198.698 127.84C198.698 125.656 199.137 123.798 199.979 122.234L198.218 121.286C197.193 123.189 196.698 125.384 196.698 127.84H198.698ZM199.973 122.244C200.843 120.674 202.041 119.478 203.578 118.637L202.618 116.883C200.742 117.909 199.273 119.38 198.223 121.275L199.973 122.244ZM203.578 118.637C205.118 117.795 206.909 117.36 208.978 117.36V115.36C206.621 115.36 204.491 115.858 202.618 116.883L203.578 118.637ZM208.978 117.36C210.994 117.36 212.747 117.782 214.263 118.6L215.213 116.84C213.369 115.845 211.282 115.36 208.978 115.36V117.36ZM214.263 118.6C215.774 119.415 216.943 120.571 217.784 122.086L219.532 121.114C218.507 119.269 217.062 117.838 215.213 116.84L214.263 118.6ZM217.79 122.096C218.651 123.603 219.098 125.386 219.098 127.48H221.098C221.098 125.094 220.586 122.957 219.526 121.104L217.79 122.096ZM214.098 125.68C214.098 124.252 213.598 123.03 212.553 122.124L211.243 123.636C211.799 124.117 212.098 124.761 212.098 125.68H214.098ZM212.553 122.124C211.547 121.252 210.304 120.84 208.898 120.84V122.84C209.892 122.84 210.649 123.121 211.243 123.636L212.553 122.124ZM208.898 120.84C207.543 120.84 206.336 121.24 205.338 122.072L206.618 123.608C207.22 123.107 207.96 122.84 208.898 122.84V120.84ZM205.325 122.083C204.334 122.937 203.764 124.12 203.55 125.53L205.527 125.83C205.686 124.787 206.075 124.077 206.631 123.597L205.325 122.083ZM204.538 126.68H213.098V124.68H204.538V126.68Z" fill="#8C8C8C" mask="url(#path-1-outside-1_697_1011)"/>
<path d="M95 65V34.5L122 19L146.5 34.5L122 50V79.5L95 65Z" fill="#FF9C00"/>
<path d="M179.5 82L151.5 97.5L126 82V52L151.5 67.5L179.5 52V82Z" fill="#FF9C00"/>
<path d="M179.5 46.5L153.5 60.5L151.5 32.5L128 17L153.5 1L179.5 17V46.5Z" fill="#FF9C00"/>
<path d="M95 65V34.5L122 19L146.5 34.5L122 50V79.5L95 65Z" stroke="#8C8C8C"/>
<path d="M179.5 82L151.5 97.5L126 82V52L151.5 67.5L179.5 52V82Z" stroke="#8C8C8C"/>
<path d="M179.5 46.5L153.5 60.5L151.5 32.5L128 17L153.5 1L179.5 17V46.5Z" stroke="#8C8C8C"/>
</svg>
