<svg width="45" height="45" viewBox="0 0 45 45" fill="none" xmlns="http://www.w3.org/2000/svg">
<circle cx="22.5" cy="22.5" r="22.5" fill="#2C3E50"/>
<path d="M11.25 22.5C16.875 22.5 22.5 16.875 22.5 11.25C22.5 16.875 28.125 22.5 33.75 22.5C28.125 22.5 22.5 28.125 22.5 33.75C22.5 28.125 16.875 22.5 11.25 22.5ZM10 31.875C11.0412 31.875 13.125 29.7913 13.125 28.75C13.125 29.7913 15.2087 31.875 16.25 31.875C15.2087 31.875 13.125 33.9587 13.125 35C13.125 33.9587 11.0412 31.875 10 31.875ZM27.5 13.75C28.75 13.75 31.25 11.25 31.25 10C31.25 11.25 33.75 13.75 35 13.75C33.75 13.75 31.25 16.25 31.25 17.5C31.25 16.25 28.75 13.75 27.5 13.75Z" fill="#FFC100"/>
</svg>
